<?xml version="1.0" encoding="UTF-8" standalone="no"?>
<svg
   width="24"
   height="452.677"
   viewBox="0 0 24 452.677"
   fill="none"
   version="1.1"
   id="svg347"
   sodipodi:docname="left_extruder_only_area.svg"
   inkscape:version="1.2.1 (9c6d41e4, 2022-07-14)"
   xmlns:inkscape="http://www.inkscape.org/namespaces/inkscape"
   xmlns:sodipodi="http://sodipodi.sourceforge.net/DTD/sodipodi-0.dtd"
   xmlns="http://www.w3.org/2000/svg"
   xmlns:svg="http://www.w3.org/2000/svg">
  <sodipodi:namedview
     id="namedview349"
     pagecolor="#ffffff"
     bordercolor="#666666"
     borderopacity="1.0"
     inkscape:showpageshadow="2"
     inkscape:pageopacity="0.0"
     inkscape:pagecheckerboard="0"
     inkscape:deskcolor="#d1d1d1"
     showgrid="false"
     inkscape:zoom="3.4119601"
     inkscape:cx="-67.116845"
     inkscape:cy="188.01509"
     inkscape:window-width="1463"
     inkscape:window-height="1205"
     inkscape:window-x="0"
     inkscape:window-y="25"
     inkscape:window-maximized="0"
     inkscape:current-layer="svg347" />
  <defs
     id="defs345">
    <clipPath
       id="clip0_20097_67555">
      <rect
         width="24"
         height="300"
         fill="#ffffff"
         transform="translate(0,0.960938)"
         id="rect342"
         x="0"
         y="0" />
    </clipPath>
  </defs>
  <g
     aria-label="Zone de la buse gauche uniquement"
     transform="rotate(-90)"
     id="text522"
     style="font-size:24.8368px;line-height:1.25;fill:#c0c0c0;stroke-width:0.62092">
    <path
       d="m -438.58536,18.870146 h -14.09198 v -2.231431 l 11.07227,-13.6917713 h -10.65994 V 0.81253123 h 13.41284 V 2.9833257 l -11.18141,13.7524073 h 11.44822 z"
       id="path2695" />
    <path
       d="m -424.12957,12.103088 q 0,3.310765 -1.69783,5.226885 -1.69783,1.91612 -4.54775,1.91612 -2.87418,0 -4.57201,-1.91612 -1.6857,-1.91612 -1.6857,-5.226885 0,-3.3107647 1.6857,-5.226885 1.69783,-1.9282476 4.57201,-1.9282476 2.84992,0 4.54775,1.9282476 1.69783,1.9161203 1.69783,5.226885 z m -2.35271,0 q 0,-2.6316335 -1.03082,-3.9050045 -1.03083,-1.2854985 -2.86205,-1.2854985 -1.85549,0 -2.88631,1.2854985 -1.0187,1.273371 -1.0187,3.9050045 0,2.546742 1.03083,3.868623 1.03082,1.309753 2.87418,1.309753 1.8191,0 2.84992,-1.297626 1.04295,-1.309753 1.04295,-3.88075 z"
       id="path2697" />
    <path
       d="m -409.27358,18.870146 h -2.27994 v -7.712991 q 0,-0.933805 -0.10914,-1.7463372 -0.10915,-0.8246593 -0.40021,-1.2854984 -0.30318,-0.5093484 -0.87316,-0.7518953 -0.56999,-0.2546742 -1.47954,-0.2546742 -0.93381,0 -1.9525,0.460839 -1.0187,0.4608391 -1.95251,1.1763524 V 18.870146 h -2.27994 V 5.323903 h 2.27994 v 1.5037906 q 1.06721,-0.885296 2.20718,-1.3825171 1.13997,-0.4972211 2.34058,-0.4972211 2.19505,0 3.34715,1.3218804 1.15209,1.3218805 1.15209,3.8079862 z"
       id="path2699" />
    <path
       d="m -393.54441,12.333508 h -9.98081 q 0,1.249116 0.37595,2.182921 0.37595,0.921679 1.03083,1.515918 0.63062,0.582113 1.49166,0.873169 0.87317,0.291056 1.91612,0.291056 1.38252,0 2.77716,-0.54573 1.40677,-0.557858 2.00101,-1.091461 h 0.12128 v 2.486105 q -1.1521,0.485094 -2.35271,0.812532 -1.20061,0.327439 -2.52249,0.327439 -3.3714,0 -5.26326,-1.819102 -1.89187,-1.831229 -1.89187,-5.190503 0,-3.322892 1.80698,-5.2753943 1.8191,-1.9525023 4.77817,-1.9525023 2.74078,0 4.22031,1.6008093 1.49167,1.6008094 1.49167,4.5477543 z m -2.21931,-1.746338 q -0.0121,-1.7948467 -0.90955,-2.7771615 -0.88529,-0.9823149 -2.70439,-0.9823149 -1.83123,0 -2.92269,1.0793336 -1.07934,1.0793336 -1.22487,2.6801428 z"
       id="path2701" />
    <path
       d="m -370.36906,18.870146 h -2.27994 v -1.418899 q -0.98231,0.848914 -2.04952,1.32188 -1.06721,0.472966 -2.31632,0.472966 -2.42547,0 -3.8565,-1.86761 -1.4189,-1.867611 -1.4189,-5.178376 0,-1.722083 0.4851,-3.0682181 0.49722,-1.3461351 1.334,-2.2920679 0.82466,-0.9216781 1.91612,-1.4067719 1.10359,-0.4850937 2.27994,-0.4850937 1.06721,0 1.89187,0.2304195 0.82466,0.2182922 1.73421,0.6912586 V -7.8976154e-7 h 2.27994 z m -2.27994,-3.33502 V 7.7614991 q -0.92168,-0.4123297 -1.64932,-0.5699852 -0.72764,-0.1576554 -1.58868,-0.1576554 -1.91612,0 -2.98333,1.3340078 -1.0672,1.3340078 -1.0672,3.7837307 0,2.413342 0.82466,3.674586 0.82466,1.249116 2.64376,1.249116 0.97018,0 1.96463,-0.424457 0.99444,-0.436584 1.85548,-1.115716 z"
       id="path2703" />
    <path
       d="m -354.54287,12.333508 h -9.9808 q 0,1.249116 0.37594,2.182921 0.37595,0.921679 1.03083,1.515918 0.63062,0.582113 1.49166,0.873169 0.87317,0.291056 1.91612,0.291056 1.38252,0 2.77716,-0.54573 1.40677,-0.557858 2.00101,-1.091461 h 0.12128 v 2.486105 q -1.1521,0.485094 -2.35271,0.812532 -1.2006,0.327439 -2.52248,0.327439 -3.37141,0 -5.26327,-1.819102 -1.89187,-1.831229 -1.89187,-5.190503 0,-3.322892 1.80698,-5.2753943 1.8191,-1.9525023 4.77817,-1.9525023 2.74078,0 4.22032,1.6008093 1.49166,1.6008094 1.49166,4.5477543 z m -2.2193,-1.746338 q -0.0121,-1.7948467 -0.90956,-2.7771615 -0.88529,-0.9823149 -2.70439,-0.9823149 -1.83123,0 -2.92269,1.0793336 -1.07934,1.0793336 -1.22486,2.6801428 z"
       id="path2705" />
    <path
       d="m -340.0507,18.870146 h -2.27994 V -7.8976154e-7 h 2.27994 z"
       id="path2707" />
    <path
       d="m -325.01279,18.870146 h -2.26781 v -1.443154 q -0.30319,0.206165 -0.82466,0.582112 -0.50935,0.363821 -0.99444,0.582113 -0.56999,0.278929 -1.30976,0.460839 -0.73977,0.194037 -1.73421,0.194037 -1.83123,0 -3.1046,-1.212734 -1.27337,-1.212734 -1.27337,-3.092473 0,-1.540172 0.65488,-2.486105 0.667,-0.95806 1.89186,-1.503791 1.23699,-0.54573 2.9712,-0.739768 1.73421,-0.194037 3.7231,-0.2910558 V 9.5684733 q 0,-0.77615 -0.27893,-1.2854984 -0.2668,-0.5093485 -0.77615,-0.8004047 -0.4851,-0.2789289 -1.16423,-0.3759477 -0.67913,-0.097019 -1.4189,-0.097019 -0.89742,0 -2.00101,0.2425469 -1.10359,0.2304195 -2.27994,0.6791312 h -0.12127 V 5.6149593 q 0.667,-0.1819102 1.92825,-0.4002024 1.26124,-0.2182921 2.4861,-0.2182921 1.43103,0 2.48611,0.2425468 1.0672,0.2304196 1.84335,0.8004047 0.76403,0.5578578 1.16423,1.4431539 0.4002,0.8852961 0.4002,2.1950492 z m -2.26781,-3.33502 v -3.771604 q -1.04295,0.06064 -2.46185,0.181911 -1.40678,0.121273 -2.23144,0.351693 -0.98231,0.278928 -1.58868,0.873168 -0.60636,0.582113 -0.60636,1.612937 0,1.164225 0.70338,1.758465 0.70339,0.582112 2.14654,0.582112 1.20061,0 2.19505,-0.460839 0.99444,-0.472966 1.84336,-1.127843 z"
       id="path2709" />
    <path
       d="m -299.96983,11.993942 q 0,1.697828 -0.48509,3.056091 -0.47297,1.358262 -1.2855,2.27994 -0.86104,0.95806 -1.89187,1.443154 -1.03082,0.472966 -2.26781,0.472966 -1.1521,0 -2.01314,-0.278928 -0.86104,-0.266802 -1.69783,-0.727641 l -0.14553,0.630622 h -2.13441 V -7.8976154e-7 h 2.27994 V 6.7428022 q 0.95806,-0.7882773 2.0374,-1.2854984 1.07933,-0.5093484 2.42546,-0.5093484 2.40122,0 3.78374,1.8433562 1.39464,1.8433562 1.39464,5.2026304 z m -2.3527,0.06064 q 0,-2.425469 -0.80041,-3.6745854 -0.8004,-1.2612437 -2.58312,-1.2612437 -0.99445,0 -2.01314,0.4365844 -1.0187,0.424457 -1.89187,1.1035882 v 7.7614995 q 0.97019,0.436585 1.66145,0.606368 0.70338,0.169782 1.58868,0.169782 1.89187,0 2.95907,-1.236989 1.07934,-1.249116 1.07934,-3.905004 z"
       id="path2711" />
    <path
       d="m -285.1866,18.870146 h -2.27994 v -1.503791 q -1.1521,0.909551 -2.20718,1.394645 -1.05508,0.485093 -2.32845,0.485093 -2.13441,0 -3.32289,-1.297625 -1.18848,-1.309753 -1.18848,-3.832241 V 5.323903 h 2.27994 v 7.712991 q 0,1.030824 0.097,1.770592 0.097,0.72764 0.41233,1.249116 0.32744,0.533603 0.84891,0.77615 0.52148,0.242547 1.51592,0.242547 0.8853,0 1.92825,-0.460839 1.05508,-0.460839 1.96463,-1.176352 V 5.323903 h 2.27994 z"
       id="path2713" />
    <path
       d="m -271.02186,14.965141 q 0,1.855484 -1.54017,3.043963 -1.52805,1.18848 -4.18394,1.18848 -1.50379,0 -2.76503,-0.351693 -1.24912,-0.36382 -2.09803,-0.788277 v -2.55887 h 0.12127 q 1.07934,0.812532 2.40122,1.297626 1.32188,0.472966 2.53461,0.472966 1.50379,0 2.35271,-0.485093 0.84891,-0.485094 0.84891,-1.528046 0,-0.800404 -0.46084,-1.212734 -0.46084,-0.41233 -1.77059,-0.703386 -0.4851,-0.109146 -1.27337,-0.254674 -0.77615,-0.145528 -1.4189,-0.315311 -1.78272,-0.472966 -2.53462,-1.382517 -0.73976,-0.921678 -0.73976,-2.2556861 0,-0.8367867 0.33956,-1.5765546 0.35169,-0.739768 1.05508,-1.3218805 0.67913,-0.5699851 1.72208,-0.8974234 1.05508,-0.3395656 2.35271,-0.3395656 1.21273,0 2.44972,0.3031835 1.24912,0.2910563 2.07378,0.7155133 v 2.4375961 h -0.12128 q -0.87317,-0.6427492 -2.12228,-1.0793336 -1.24912,-0.4487117 -2.44973,-0.4487117 -1.24911,0 -2.11015,0.4850937 -0.86104,0.4729664 -0.86104,1.4188992 0,0.8367867 0.52147,1.2612437 0.50935,0.424457 1.64932,0.691259 0.63062,0.145528 1.40677,0.291056 0.78828,0.145528 1.30975,0.266801 1.58869,0.363821 2.44973,1.249117 0.86104,0.897423 0.86104,2.376959 z"
       id="path2715" />
    <path
       d="m -256.42053,12.333508 h -9.98081 q 0,1.249116 0.37595,2.182921 0.37595,0.921679 1.03082,1.515918 0.63063,0.582113 1.49167,0.873169 0.87317,0.291056 1.91612,0.291056 1.38252,0 2.77716,-0.54573 1.40677,-0.557858 2.00101,-1.091461 h 0.12127 v 2.486105 q -1.15209,0.485094 -2.3527,0.812532 -1.20061,0.327439 -2.52249,0.327439 -3.3714,0 -5.26326,-1.819102 -1.89187,-1.831229 -1.89187,-5.190503 0,-3.322892 1.80697,-5.2753943 1.81911,-1.9525023 4.77818,-1.9525023 2.74078,0 4.22031,1.6008093 1.49167,1.6008094 1.49167,4.5477543 z m -2.21931,-1.746338 q -0.0121,-1.7948467 -0.90955,-2.7771615 -0.88529,-0.9823149 -2.7044,-0.9823149 -1.83122,0 -2.92269,1.0793336 -1.07933,1.0793336 -1.22486,2.6801428 z"
       id="path2717" />
    <path
       d="m -233.24519,17.329973 q 0,3.444166 -1.56443,5.057102 -1.56442,1.612937 -4.81455,1.612937 -1.07933,0 -2.11016,-0.157655 -1.0187,-0.145528 -2.01314,-0.424457 v -2.32845 h 0.12128 q 0.55785,0.218292 1.77059,0.533603 1.21273,0.327438 2.42547,0.327438 1.16422,0 1.92824,-0.278929 0.76403,-0.278929 1.18848,-0.77615 0.42446,-0.472966 0.60637,-1.13997 0.18191,-0.667004 0.18191,-1.491663 V 17.02679 q -1.03082,0.824659 -1.97676,1.236989 -0.9338,0.400202 -2.38908,0.400202 -2.42547,0 -3.8565,-1.746338 -1.4189,-1.758464 -1.4189,-4.947956 0,-1.746337 0.4851,-3.0075809 0.49722,-1.2733711 1.34613,-2.1950492 0.78828,-0.8610414 1.91612,-1.3340078 1.12785,-0.4850937 2.24356,-0.4850937 1.17635,0 1.96463,0.2425469 0.80041,0.2304195 1.6857,0.7155132 l 0.14553,-0.5821125 h 2.13441 z m -2.27994,-2.182922 V 7.7614991 q -0.90955,-0.4123297 -1.69783,-0.5821125 -0.77615,-0.1819102 -1.5523,-0.1819102 -1.87974,0 -2.95907,1.2612438 -1.07933,1.2612437 -1.07933,3.6624578 0,2.279941 0.8004,3.456293 0.80041,1.176352 2.65589,1.176352 0.99444,0 1.98889,-0.375947 1.00656,-0.388075 1.84335,-1.030825 z"
       id="path2719" />
    <path
       d="m -218.23152,18.870146 h -2.26782 v -1.443154 q -0.30318,0.206165 -0.82466,0.582112 -0.50935,0.363821 -0.99444,0.582113 -0.56998,0.278929 -1.30975,0.460839 -0.73977,0.194037 -1.73421,0.194037 -1.83123,0 -3.1046,-1.212734 -1.27337,-1.212734 -1.27337,-3.092473 0,-1.540172 0.65487,-2.486105 0.66701,-0.95806 1.89187,-1.503791 1.23699,-0.54573 2.9712,-0.739768 1.73421,-0.194037 3.72309,-0.2910558 V 9.5684733 q 0,-0.77615 -0.27893,-1.2854984 -0.2668,-0.5093485 -0.77615,-0.8004047 -0.48509,-0.2789289 -1.16422,-0.3759477 -0.67913,-0.097019 -1.4189,-0.097019 -0.89742,0 -2.00101,0.2425469 -1.10359,0.2304195 -2.27994,0.6791312 h -0.12128 V 5.6149593 q 0.66701,-0.1819102 1.92825,-0.4002024 1.26124,-0.2182921 2.48611,-0.2182921 1.43102,0 2.4861,0.2425468 1.06721,0.2304196 1.84336,0.8004047 0.76402,0.5578578 1.16422,1.4431539 0.40021,0.8852961 0.40021,2.1950492 z m -2.26782,-3.33502 v -3.771604 q -1.04295,0.06064 -2.46185,0.181911 -1.40677,0.121273 -2.23143,0.351693 -0.98231,0.278928 -1.58868,0.873168 -0.60637,0.582113 -0.60637,1.612937 0,1.164225 0.70339,1.758465 0.70338,0.582112 2.14654,0.582112 1.2006,0 2.19505,-0.460839 0.99444,-0.472966 1.84335,-1.127843 z"
       id="path2721" />
    <path
       d="m -202.61151,18.870146 h -2.27994 v -1.503791 q -1.1521,0.909551 -2.20718,1.394645 -1.05508,0.485093 -2.32845,0.485093 -2.13441,0 -3.32289,-1.297625 -1.18848,-1.309753 -1.18848,-3.832241 V 5.323903 h 2.27994 v 7.712991 q 0,1.030824 0.097,1.770592 0.097,0.72764 0.41233,1.249116 0.32744,0.533603 0.84891,0.77615 0.52148,0.242547 1.51592,0.242547 0.8853,0 1.92825,-0.460839 1.05508,-0.460839 1.96463,-1.176352 V 5.323903 h 2.27994 z"
       id="path2723" />
    <path
       d="m -188.10721,18.021232 q -1.13997,0.54573 -2.17079,0.848914 -1.0187,0.303183 -2.1708,0.303183 -1.4674,0 -2.69227,-0.424457 -1.22486,-0.436584 -2.09803,-1.309753 -0.88529,-0.873168 -1.37039,-2.207176 -0.48509,-1.334008 -0.48509,-3.116728 0,-3.3228917 1.8191,-5.2147573 1.83123,-1.8918656 4.82668,-1.8918656 1.16423,0 2.27995,0.3274383 1.12784,0.3274383 2.06164,0.8004047 v 2.5346148 h -0.12127 q -1.04295,-0.8125321 -2.15867,-1.2491164 -1.10358,-0.4365844 -2.15866,-0.4365844 -1.94038,0 -3.06822,1.3097531 -1.11572,1.2976258 -1.11572,3.8201128 0,2.449724 1.09146,3.771604 1.10359,1.309753 3.09248,1.309753 0.69125,0 1.40677,-0.18191 0.71551,-0.18191 1.2855,-0.472966 0.49722,-0.254674 0.9338,-0.533603 0.43659,-0.291057 0.69126,-0.497221 h 0.12127 z"
       id="path2725" />
    <path
       d="m -173.85757,18.870146 h -2.27994 v -7.712991 q 0,-0.933805 -0.10915,-1.7463372 -0.10915,-0.8246593 -0.4002,-1.2854984 -0.30319,-0.5093484 -0.87317,-0.7518953 -0.56999,-0.2546742 -1.47954,-0.2546742 -0.9338,0 -1.9525,0.460839 -1.0187,0.4608391 -1.9525,1.1763524 V 18.870146 h -2.27994 V -7.8976154e-7 h 2.27994 V 6.8276936 q 1.06721,-0.885296 2.20718,-1.3825171 1.13997,-0.4972211 2.34057,-0.4972211 2.19505,0 3.34715,1.3218804 1.1521,1.3218805 1.1521,3.8079862 z"
       id="path2727" />
    <path
       d="m -158.1284,12.333508 h -9.98081 q 0,1.249116 0.37595,2.182921 0.37595,0.921679 1.03082,1.515918 0.63063,0.582113 1.49167,0.873169 0.87317,0.291056 1.91612,0.291056 1.38251,0 2.77716,-0.54573 1.40677,-0.557858 2.00101,-1.091461 h 0.12127 v 2.486105 q -1.15209,0.485094 -2.3527,0.812532 -1.20061,0.327439 -2.52249,0.327439 -3.3714,0 -5.26327,-1.819102 -1.89186,-1.831229 -1.89186,-5.190503 0,-3.322892 1.80697,-5.2753943 1.81911,-1.9525023 4.77818,-1.9525023 2.74078,0 4.22031,1.6008093 1.49167,1.6008094 1.49167,4.5477543 z m -2.21931,-1.746338 q -0.0121,-1.7948467 -0.90955,-2.7771615 -0.88529,-0.9823149 -2.7044,-0.9823149 -1.83123,0 -2.92269,1.0793336 -1.07933,1.0793336 -1.22486,2.6801428 z"
       id="path2729" />
    <path
       d="m -134.71051,18.870146 h -2.27994 v -1.503791 q -1.1521,0.909551 -2.20718,1.394645 -1.05508,0.485093 -2.32845,0.485093 -2.13441,0 -3.32289,-1.297625 -1.18848,-1.309753 -1.18848,-3.832241 V 5.323903 h 2.27994 v 7.712991 q 0,1.030824 0.097,1.770592 0.097,0.72764 0.41233,1.249116 0.32744,0.533603 0.84891,0.77615 0.52148,0.242547 1.51592,0.242547 0.8853,0 1.92825,-0.460839 1.05508,-0.460839 1.96463,-1.176352 V 5.323903 h 2.27994 z"
       id="path2731" />
    <path
       d="m -118.89645,18.870146 h -2.27994 v -7.712991 q 0,-0.933805 -0.10915,-1.7463372 -0.10914,-0.8246593 -0.4002,-1.2854984 -0.30318,-0.5093484 -0.87317,-0.7518953 -0.56998,-0.2546742 -1.47954,-0.2546742 -0.9338,0 -1.9525,0.460839 -1.01869,0.4608391 -1.9525,1.1763524 V 18.870146 h -2.27994 V 5.323903 h 2.27994 v 1.5037906 q 1.06721,-0.885296 2.20718,-1.3825171 1.13997,-0.4972211 2.34057,-0.4972211 2.19505,0 3.34715,1.3218804 1.1521,1.3218805 1.1521,3.8079862 z"
       id="path2733" />
    <path
       d="m -112.05663,3.0560898 h -2.57099 V 0.69125779 h 2.57099 z m -0.14552,15.8140562 h -2.27995 V 5.323903 h 2.27995 z"
       id="path2735" />
    <path
       d="m -96.703425,23.866611 h -2.27994 v -6.52451 q -1.055075,0.90955 -2.098035,1.358262 -1.04295,0.436584 -2.25568,0.436584 -2.41334,0 -3.8565,-1.855483 -1.43102,-1.867611 -1.43102,-5.141994 0,-1.746337 0.49722,-3.0803451 0.50935,-1.3461352 1.33401,-2.2556859 0.8004,-0.8852961 1.87973,-1.3703899 1.07934,-0.4850937 2.27994,-0.4850937 1.09147,0 1.92825,0.2425469 0.848916,0.2425468 1.722085,0.7155132 l 0.145528,-0.5821125 h 2.134412 z m -2.27994,-8.440631 V 7.7614991 q -0.945933,-0.424457 -1.673575,-0.5942398 -0.72764,-0.1697829 -1.57655,-0.1697829 -1.97676,0 -3.00758,1.3461352 -1.03083,1.3340078 -1.03083,3.6867124 0,2.376959 0.82466,3.662458 0.83679,1.273371 2.61951,1.273371 0.99444,0 1.98888,-0.424457 0.994443,-0.436585 1.855485,-1.115716 z"
       id="path2737" />
    <path
       d="m -80.986391,18.870146 h -2.27994 v -1.503791 q -1.152098,0.909551 -2.207177,1.394645 -1.055079,0.485093 -2.32845,0.485093 -2.134412,0 -3.322892,-1.297625 -1.18848,-1.309753 -1.18848,-3.832241 V 5.323903 h 2.279941 v 7.712991 q 0,1.030824 0.09702,1.770592 0.09702,0.72764 0.412329,1.249116 0.327439,0.533603 0.848914,0.77615 0.521476,0.242547 1.515918,0.242547 0.885297,0 1.928248,-0.460839 1.055079,-0.460839 1.96463,-1.176352 V 5.323903 h 2.27994 z"
       id="path2739" />
    <path
       d="m -65.160204,12.333508 h -9.980803 q 0,1.249116 0.375947,2.182921 0.375948,0.921679 1.030825,1.515918 0.630621,0.582113 1.491663,0.873169 0.873169,0.291056 1.91612,0.291056 1.382517,0 2.777162,-0.54573 1.406772,-0.557858 2.001011,-1.091461 h 0.121274 v 2.486105 q -1.152098,0.485094 -2.352705,0.812532 -1.200607,0.327439 -2.522487,0.327439 -3.371402,0 -5.263267,-1.819102 -1.891866,-1.831229 -1.891866,-5.190503 0,-3.322892 1.806974,-5.2753943 1.819102,-1.9525023 4.778174,-1.9525023 2.740779,0 4.220315,1.6008093 1.491663,1.6008094 1.491663,4.5477543 z m -2.219303,-1.746338 q -0.01213,-1.7948467 -0.909551,-2.7771615 -0.885296,-0.9823149 -2.704398,-0.9823149 -1.831229,0 -2.92269,1.0793336 -1.079333,1.0793336 -1.224861,2.6801428 z"
       id="path2741" />
    <path
       d="m -41.936351,18.870146 h -2.27994 v -7.712991 q 0,-0.873168 -0.08489,-1.6857005 -0.07276,-0.812532 -0.327438,-1.2976257 -0.278929,-0.5214758 -0.800405,-0.7882774 -0.521475,-0.2668015 -1.50379,-0.2668015 -0.95806,0 -1.916121,0.4850937 -0.95806,0.4729664 -1.91612,1.2127344 0.03638,0.2789289 0.06064,0.6548765 0.02425,0.3638203 0.02425,0.7276405 v 8.671051 h -2.279941 v -7.712991 q 0,-0.897423 -0.08489,-1.6978278 -0.07276,-0.812532 -0.327439,-1.2976258 -0.278929,-0.5214757 -0.800404,-0.77615 -0.521476,-0.2668015 -1.503791,-0.2668015 -0.933805,0 -1.879738,0.460839 -0.933806,0.4608391 -1.867611,1.1763524 V 18.870146 h -2.279941 V 5.323903 h 2.279941 v 1.5037906 q 1.067206,-0.885296 2.122285,-1.3825171 1.067206,-0.4972211 2.267813,-0.4972211 1.382517,0 2.340578,0.5821125 0.970187,0.5821125 1.443153,1.6129367 1.382518,-1.164225 2.522488,-1.6735734 1.13997,-0.5214758 2.437596,-0.5214758 2.231431,0 3.28651,1.3582625 1.067206,1.3461351 1.067206,3.7716041 z"
       id="path2743" />
    <path
       d="m -26.20717,12.333508 h -9.980804 q 0,1.249116 0.375948,2.182921 0.375947,0.921679 1.030824,1.515918 0.630622,0.582113 1.491663,0.873169 0.873169,0.291056 1.916121,0.291056 1.382517,0 2.777161,-0.54573 1.406772,-0.557858 2.001012,-1.091461 h 0.121273 v 2.486105 q -1.152097,0.485094 -2.352704,0.812532 -1.200607,0.327439 -2.522488,0.327439 -3.371401,0 -5.263267,-1.819102 -1.891866,-1.831229 -1.891866,-5.190503 0,-3.322892 1.806975,-5.2753943 1.819101,-1.9525023 4.778173,-1.9525023 2.74078,0 4.220316,1.6008093 1.491663,1.6008094 1.491663,4.5477543 z m -2.219304,-1.746338 q -0.01213,-1.7948467 -0.909551,-2.7771615 -0.885296,-0.9823149 -2.704397,-0.9823149 -1.831229,0 -2.92269,1.0793336 -1.079334,1.0793336 -1.224862,2.6801428 z"
       id="path2745" />
    <path
       d="m -11.423948,18.870146 h -2.279941 v -7.712991 q 0,-0.933805 -0.109146,-1.7463372 -0.109146,-0.8246593 -0.400202,-1.2854984 -0.303184,-0.5093484 -0.873169,-0.7518953 -0.569985,-0.2546742 -1.479536,-0.2546742 -0.933805,0 -1.952502,0.460839 -1.018697,0.4608391 -1.952503,1.1763524 V 18.870146 h -2.27994 V 5.323903 h 2.27994 v 1.5037906 q 1.067207,-0.885296 2.207177,-1.3825171 1.13997,-0.4972211 2.340577,-0.4972211 2.195049,0 3.347147,1.3218804 1.152098,1.3218805 1.152098,3.8079862 z"
       id="path2747" />
    <path
       d="M 1.3042241e-5,18.748872 Q -0.64273617,18.918655 -1.4067588,19.027801 q -0.7518953,0.109146 -1.3461351,0.109146 -2.0737758,0 -3.1531094,-1.115715 -1.0793336,-1.115716 -1.0793336,-3.577567 V 7.2400233 H -8.5255095 V 5.323903 h 1.5401726 V 1.4310258 h 2.2799406 V 5.323903 H 1.3042241e-5 V 7.2400233 H -4.7053963 v 6.1728177 q 0,1.067206 0.048509,1.673574 0.048509,0.594239 0.3395656,1.115715 0.2668016,0.485094 0.7276406,0.715513 0.4729664,0.218293 1.4310266,0.218293 0.5578578,0 1.16422497,-0.157656 0.60636718,-0.169783 0.87316874,-0.278929 H 1.3042241e-5 Z"
       id="path2749" />
  </g>
</svg>
