<?xml version="1.0" encoding="UTF-8" standalone="no"?>
<svg
   width="24"
   height="452.677"
   viewBox="0 0 24 452.677"
   fill="none"
   version="1.1"
   id="svg220"
   sodipodi:docname="right_extruder_only_area.svg"
   inkscape:version="1.2.1 (9c6d41e4, 2022-07-14)"
   xmlns:inkscape="http://www.inkscape.org/namespaces/inkscape"
   xmlns:sodipodi="http://sodipodi.sourceforge.net/DTD/sodipodi-0.dtd"
   xmlns="http://www.w3.org/2000/svg"
   xmlns:svg="http://www.w3.org/2000/svg">
  <defs
     id="defs224" />
  <sodipodi:namedview
     id="namedview222"
     pagecolor="#ffffff"
     bordercolor="#666666"
     borderopacity="1.0"
     inkscape:showpageshadow="2"
     inkscape:pageopacity="0.0"
     inkscape:pagecheckerboard="0"
     inkscape:deskcolor="#d1d1d1"
     showgrid="false"
     inkscape:zoom="3.4119601"
     inkscape:cx="89.391432"
     inkscape:cy="357.1261"
     inkscape:window-width="2173"
     inkscape:window-height="1205"
     inkscape:window-x="46"
     inkscape:window-y="32"
     inkscape:window-maximized="0"
     inkscape:current-layer="svg220" />
  <g
     aria-label="Zone de la buse droite uniquement"
     transform="rotate(90,-3.645,3.645)"
     id="text451"
     style="font-size:24.9756px;line-height:1.25;fill:#c0c0c0;stroke-width:0.624391">
    <path
       d="M 14.170726,-5.0243883 H -1.3038516e-8 V -7.2682898 L 11.134142,-21.036577 H 0.41463396 v -2.14634 H 13.902433 v 2.182926 L 2.6585355,-7.1707289 H 14.170726 Z"
       id="path1840" />
    <path
       d="m 28.707303,-11.829264 q 0,3.3292674 -1.707316,5.2560958 -1.707316,1.9268285 -4.573169,1.9268285 -2.890242,0 -4.597559,-1.9268285 -1.695121,-1.9268284 -1.695121,-5.2560958 0,-3.329266 1.695121,-5.256095 1.707317,-1.939023 4.597559,-1.939023 2.865853,0 4.573169,1.939023 1.707316,1.926829 1.707316,5.256095 z m -2.365852,0 q 0,-2.64634 -1.036585,-3.926827 -1.036585,-1.292683 -2.878048,-1.292683 -1.865853,0 -2.902438,1.292683 -1.024389,1.280487 -1.024389,3.926827 0,2.560975 1.036585,3.8902428 1.036584,1.3170726 2.890242,1.3170726 1.829268,0 2.865853,-1.3048775 1.04878,-1.3170726 1.04878,-3.9024379 z"
       id="path1842" />
    <path
       d="m 43.646323,-5.0243883 h -2.292682 v -7.7560947 q 0,-0.939024 -0.109757,-1.756096 -0.109756,-0.829268 -0.402438,-1.292683 -0.304878,-0.512195 -0.878049,-0.756097 -0.57317,-0.256098 -1.487804,-0.256098 -0.939024,0 -1.963414,0.463415 -1.02439,0.463414 -1.963414,1.182926 V -5.0243883 H 32.256083 V -18.646334 h 2.292682 v 1.512195 q 1.073171,-0.890244 2.219512,-1.390244 1.146341,-0.499999 2.353657,-0.499999 2.207316,0 3.365852,1.329267 1.158537,1.329268 1.158537,3.829267 z"
       id="path1844" />
    <path
       d="M 59.463388,-11.597556 H 49.426807 q 0,1.256097 0.378049,2.1951207 0.378048,0.9268289 1.036585,1.5243896 0.634146,0.5853657 1.499999,0.8780485 0.878048,0.2926828 1.926828,0.2926828 1.390244,0 2.792682,-0.5487803 1.414634,-0.5609754 2.012194,-1.0975605 h 0.121952 v 2.4999989 q -1.158536,0.4878047 -2.365853,0.8170729 -1.207317,0.3292681 -2.536584,0.3292681 -3.390243,0 -5.292681,-1.8292675 -1.902438,-1.8414626 -1.902438,-5.2195102 0,-3.341462 1.817072,-5.304876 1.829268,-1.963413 4.804876,-1.963413 2.756097,0 4.243901,1.609755 1.499999,1.609755 1.499999,4.573169 z m -2.231706,-1.756097 q -0.01219,-1.804877 -0.914634,-2.792682 -0.890243,-0.987804 -2.719511,-0.987804 -1.841463,0 -2.939023,1.085365 -1.085366,1.085365 -1.231707,2.695121 z"
       id="path1846" />
    <path
       d="M 82.768257,-5.0243883 H 80.475575 V -6.451217 q -0.987804,0.8536582 -2.060974,1.3292678 -1.073171,0.4756095 -2.329268,0.4756095 -2.439023,0 -3.878047,-1.878048 -1.426829,-1.878048 -1.426829,-5.2073153 0,-1.731706 0.487805,-3.085364 0.5,-1.353658 1.341463,-2.304877 0.829268,-0.926829 1.926828,-1.414634 1.109756,-0.487804 2.292682,-0.487804 1.073171,0 1.902439,0.231707 0.829267,0.219512 1.743901,0.695121 v -5.902436 h 2.292682 z m -2.292682,-3.3536571 v -7.8170696 q -0.926829,-0.414634 -1.658536,-0.573171 -0.731707,-0.158536 -1.59756,-0.158536 -1.926828,0 -2.999999,1.341463 -1.07317,1.341462 -1.07317,3.804876 0,2.4268282 0.829268,3.6951204 0.829268,1.256097 2.658535,1.256097 0.97561,0 1.975609,-0.4268291 1,-0.4390242 1.865853,-1.1219507 z"
       id="path1848" />
    <path
       d="M 98.682882,-11.597556 H 88.646301 q 0,1.256097 0.378049,2.1951207 0.378048,0.9268289 1.036584,1.5243896 0.634147,0.5853657 1.5,0.8780485 0.878048,0.2926828 1.926828,0.2926828 1.390244,0 2.792682,-0.5487803 1.414634,-0.5609754 2.012194,-1.0975605 h 0.121952 v 2.4999989 q -1.158537,0.4878047 -2.365853,0.8170729 -1.207317,0.3292681 -2.536584,0.3292681 -3.390243,0 -5.292681,-1.8292675 -1.902438,-1.8414626 -1.902438,-5.2195102 0,-3.341462 1.817072,-5.304876 1.829268,-1.963413 4.804876,-1.963413 2.756096,0 4.243901,1.609755 1.499999,1.609755 1.499999,4.573169 z m -2.231706,-1.756097 q -0.0122,-1.804877 -0.914634,-2.792682 -0.890244,-0.987804 -2.719511,-0.987804 -1.841463,0 -2.939023,1.085365 -1.085366,1.085365 -1.231707,2.695121 z"
       id="path1850" />
    <path
       d="m 113.25605,-5.0243883 h -2.29268 V -23.99999 h 2.29268 z"
       id="path1852" />
    <path
       d="m 128.37799,-5.0243883 h -2.28048 v -1.4512189 q -0.30488,0.207317 -0.82927,0.5853656 -0.5122,0.3658535 -1,0.5853656 -0.57317,0.2804877 -1.31707,0.4634144 -0.74391,0.1951219 -1.74391,0.1951219 -1.84146,0 -3.12195,-1.2195117 -1.28048,-1.2195117 -1.28048,-3.1097548 0,-1.5487798 0.65853,-2.4999988 0.67074,-0.963414 1.90244,-1.512195 1.2439,-0.54878 2.98781,-0.743902 1.7439,-0.195122 3.7439,-0.292683 v -0.353658 q 0,-0.780487 -0.28049,-1.292682 -0.26829,-0.512195 -0.78049,-0.804878 -0.4878,-0.280488 -1.17073,-0.378049 -0.68293,-0.09756 -1.42683,-0.09756 -0.90244,0 -2.01219,0.243903 -1.10976,0.231707 -2.29268,0.682926 h -0.12196 v -2.329267 q 0.67074,-0.182927 1.93903,-0.402439 1.26829,-0.219512 2.5,-0.219512 1.43902,0 2.5,0.243902 1.07317,0.231708 1.85365,0.804878 0.7683,0.560975 1.17073,1.451219 0.40244,0.890244 0.40244,2.207316 z m -2.28048,-3.3536571 v -3.7926816 q -1.04878,0.06098 -2.47561,0.182927 -1.41464,0.121951 -2.2439,0.353658 -0.98781,0.280488 -1.59756,0.878049 -0.60976,0.585365 -0.60976,1.6219503 0,1.1707312 0.70732,1.768292 0.70731,0.5853656 2.15853,0.5853656 1.20732,0 2.20732,-0.4634145 1,-0.4756095 1.85366,-1.1341458 z"
       id="path1854" />
    <path
       d="m 153.5609,-11.93902 q 0,1.707317 -0.4878,3.0731699 -0.47561,1.3658531 -1.29268,2.2926819 -0.86586,0.9634143 -1.90244,1.451219 -1.03659,0.4756095 -2.28049,0.4756095 -1.15853,0 -2.02439,-0.2804877 -0.86585,-0.2682925 -1.70731,-0.731707 l -0.14635,0.6341461 H 141.5731 V -23.99999 h 2.29269 v 6.780485 q 0.96341,-0.792683 2.04878,-1.292683 1.08536,-0.512194 2.43902,-0.512194 2.41463,0 3.80488,1.853657 1.40243,1.853658 1.40243,5.231705 z m -2.36585,0.06098 q 0,-2.439023 -0.80488,-3.69512 -0.80487,-1.268293 -2.59756,-1.268293 -1,0 -2.02439,0.439025 -1.02439,0.426829 -1.90243,1.109755 v 7.8048751 q 0.97561,0.4390242 1.67073,0.6097558 0.70731,0.1707317 1.59756,0.1707317 1.90244,0 2.97561,-1.243902 1.08536,-1.256097 1.08536,-3.9268276 z"
       id="path1856" />
    <path
       d="m 168.42676,-5.0243883 h -2.29269 v -1.5121945 q -1.15853,0.9146338 -2.21951,1.4024384 -1.06097,0.4878047 -2.34146,0.4878047 -2.14634,0 -3.34146,-1.3048775 -1.19512,-1.3170726 -1.19512,-3.8536569 v -8.8414599 h 2.29268 v 7.756094 q 0,1.0365854 0.0976,1.7804875 0.0976,0.7317071 0.41463,1.2560971 0.32927,0.5365851 0.85366,0.7804875 0.52439,0.2439023 1.52439,0.2439023 0.89025,0 1.93903,-0.4634144 1.06097,-0.4634145 1.9756,-1.1829264 V -18.646334 h 2.29269 z"
       id="path1858" />
    <path
       d="m 182.67065,-8.9512159 q 0,1.8658528 -1.54878,3.0609743 -1.53658,1.1951214 -4.20731,1.1951214 -1.5122,0 -2.78049,-0.3536583 -1.2561,-0.3658536 -2.10976,-0.7926826 v -2.5731697 h 0.12196 q 1.08536,0.8170728 2.41463,1.3048775 1.32927,0.4756096 2.54878,0.4756096 1.51219,0 2.36585,-0.4878047 0.85366,-0.4878047 0.85366,-1.5365847 0,-0.8048777 -0.46342,-1.2195117 -0.46341,-0.4146342 -1.78048,-0.7073172 -0.48781,-0.109756 -1.28049,-0.256097 -0.78049,-0.146341 -1.42683,-0.317073 -1.79268,-0.47561 -2.54878,-1.390243 -0.7439,-0.926829 -0.7439,-2.268292 0,-0.841463 0.34146,-1.585365 0.35366,-0.743902 1.06098,-1.329268 0.68293,-0.573171 1.73171,-0.902439 1.06097,-0.341463 2.36585,-0.341463 1.21951,0 2.46341,0.304878 1.2561,0.292683 2.08537,0.719512 v 2.451218 h -0.12195 q -0.87805,-0.646341 -2.13415,-1.085365 -1.2561,-0.451219 -2.46341,-0.451219 -1.2561,0 -2.12195,0.487804 -0.86586,0.47561 -0.86586,1.426829 0,0.841463 0.52439,1.268292 0.5122,0.426829 1.65854,0.695122 0.63414,0.146341 1.41463,0.292683 0.79268,0.146341 1.31707,0.268292 1.59757,0.365854 2.46342,1.256097 0.86585,0.902439 0.86585,2.3902431 z"
       id="path1860" />
    <path
       d="m 197.35357,-11.597556 h -10.03658 q 0,1.256097 0.37805,2.1951207 0.37805,0.9268289 1.03659,1.5243896 0.63414,0.5853657 1.5,0.8780485 0.87804,0.2926828 1.92682,0.2926828 1.39025,0 2.79269,-0.5487803 1.41463,-0.5609754 2.01219,-1.0975605 h 0.12195 v 2.4999989 q -1.15853,0.4878047 -2.36585,0.8170729 -1.20732,0.3292681 -2.53658,0.3292681 -3.39025,0 -5.29269,-1.8292675 -1.90243,-1.8414626 -1.90243,-5.2195102 0,-3.341462 1.81707,-5.304876 1.82927,-1.963413 4.80487,-1.963413 2.7561,0 4.24391,1.609755 1.49999,1.609755 1.49999,4.573169 z m -2.2317,-1.756097 q -0.0122,-1.804877 -0.91464,-2.792682 -0.89024,-0.987804 -2.71951,-0.987804 -1.84146,0 -2.93902,1.085365 -1.08537,1.085365 -1.23171,2.695121 z"
       id="path1862" />
    <path
       d="m 220.65844,-5.0243883 h -2.29268 V -6.451217 q -0.98781,0.8536582 -2.06098,1.3292678 -1.07317,0.4756095 -2.32926,0.4756095 -2.43903,0 -3.87805,-1.878048 -1.42683,-1.878048 -1.42683,-5.2073153 0,-1.731706 0.4878,-3.085364 0.5,-1.353658 1.34147,-2.304877 0.82927,-0.926829 1.92683,-1.414634 1.10975,-0.487804 2.29268,-0.487804 1.07317,0 1.90244,0.231707 0.82926,0.219512 1.7439,0.695121 v -5.902436 h 2.29268 z m -2.29268,-3.3536571 v -7.8170696 q -0.92683,-0.414634 -1.65854,-0.573171 -0.73171,-0.158536 -1.59756,-0.158536 -1.92683,0 -3,1.341463 -1.07317,1.341462 -1.07317,3.804876 0,2.4268282 0.82927,3.6951204 0.82927,1.256097 2.65854,1.256097 0.97561,0 1.9756,-0.4268291 1,-0.4390242 1.86586,-1.1219507 z"
       id="path1864" />
    <path
       d="m 233.67063,-16.146335 h -0.12195 q -0.51219,-0.121951 -1,-0.170732 -0.47561,-0.06097 -1.13414,-0.06097 -1.06098,0 -2.04878,0.475609 -0.98781,0.463415 -1.90244,1.207317 v 9.6707277 h -2.29268 V -18.646334 h 2.29268 v 2.012194 q 1.36585,-1.09756 2.40244,-1.548779 1.04878,-0.463415 2.13414,-0.463415 0.59756,0 0.86586,0.03659 0.26829,0.02439 0.80487,0.109756 z"
       id="path1866" />
    <path
       d="m 247.43891,-11.829264 q 0,3.3292674 -1.70731,5.2560958 -1.70732,1.9268285 -4.57317,1.9268285 -2.89025,0 -4.59756,-1.9268285 -1.69512,-1.9268284 -1.69512,-5.2560958 0,-3.329266 1.69512,-5.256095 1.70731,-1.939023 4.59756,-1.939023 2.86585,0 4.57317,1.939023 1.70731,1.926829 1.70731,5.256095 z m -2.36585,0 q 0,-2.64634 -1.03658,-3.926827 -1.03659,-1.292683 -2.87805,-1.292683 -1.86586,0 -2.90244,1.292683 -1.02439,1.280487 -1.02439,3.926827 0,2.560975 1.03658,3.8902428 1.03659,1.3170726 2.89025,1.3170726 1.82927,0 2.86585,-1.3048775 1.04878,-1.3170726 1.04878,-3.9024379 z"
       id="path1868" />
    <path
       d="m 253.45111,-20.926821 h -2.58536 v -2.378047 h 2.58536 z m -0.14634,15.9024327 h -2.29268 V -18.646334 h 2.29268 z"
       id="path1870" />
    <path
       d="m 264.91454,-5.1463395 q -0.64634,0.1707317 -1.41464,0.2804877 -0.75609,0.1097561 -1.35366,0.1097561 -2.08536,0 -3.17073,-1.1219508 -1.08536,-1.1219507 -1.08536,-3.5975595 v -7.243899 h -1.54878 v -1.926829 h 1.54878 v -3.914632 h 2.29268 v 3.914632 h 4.73171 v 1.926829 h -4.73171 v 6.207314 q 0,1.0731704 0.0488,1.6829262 0.0488,0.5975608 0.34146,1.1219508 0.2683,0.4878047 0.73171,0.7195119 0.47561,0.2195121 1.43903,0.2195121 0.56097,0 1.17073,-0.1585365 0.60975,-0.1707317 0.87805,-0.2804877 h 0.12195 z"
       id="path1872" />
    <path
       d="m 279.08526,-11.597556 h -10.03658 q 0,1.256097 0.37805,2.1951207 0.37805,0.9268289 1.03659,1.5243896 0.63414,0.5853657 1.5,0.8780485 0.87804,0.2926828 1.92682,0.2926828 1.39025,0 2.79269,-0.5487803 1.41463,-0.5609754 2.01219,-1.0975605 h 0.12195 v 2.4999989 q -1.15853,0.4878047 -2.36585,0.8170729 -1.20732,0.3292681 -2.53659,0.3292681 -3.39024,0 -5.29268,-1.8292675 -1.90243,-1.8414626 -1.90243,-5.2195102 0,-3.341462 1.81707,-5.304876 1.82927,-1.963413 4.80487,-1.963413 2.7561,0 4.2439,1.609755 1.5,1.609755 1.5,4.573169 z m -2.2317,-1.756097 q -0.0122,-1.804877 -0.91464,-2.792682 -0.89024,-0.987804 -2.71951,-0.987804 -1.84146,0 -2.93902,1.085365 -1.08537,1.085365 -1.23171,2.695121 z"
       id="path1874" />
    <path
       d="m 302.63402,-5.0243883 h -2.29269 v -1.5121945 q -1.15853,0.9146338 -2.21951,1.4024384 -1.06097,0.4878047 -2.34146,0.4878047 -2.14634,0 -3.34146,-1.3048775 -1.19512,-1.3170726 -1.19512,-3.8536569 v -8.8414599 h 2.29268 v 7.756094 q 0,1.0365854 0.0976,1.7804875 0.0976,0.7317071 0.41463,1.2560971 0.32927,0.5365851 0.85366,0.7804875 0.52439,0.2439023 1.52439,0.2439023 0.89025,0 1.93903,-0.4634144 1.06097,-0.4634145 1.9756,-1.1829264 V -18.646334 h 2.29269 z"
       id="path1876" />
    <path
       d="m 318.53645,-5.0243883 h -2.29268 v -7.7560947 q 0,-0.939024 -0.10976,-1.756096 -0.10976,-0.829268 -0.40244,-1.292683 -0.30488,-0.512195 -0.87805,-0.756097 -0.57317,-0.256098 -1.4878,-0.256098 -0.93903,0 -1.96342,0.463415 -1.02439,0.463414 -1.96341,1.182926 v 10.1707277 h -2.29268 V -18.646334 h 2.29268 v 1.512195 q 1.07317,-0.890244 2.21951,-1.390244 1.14634,-0.499999 2.35366,-0.499999 2.20732,0 3.36585,1.329267 1.15854,1.329268 1.15854,3.829267 z"
       id="path1878" />
    <path
       d="m 325.41449,-20.926821 h -2.58536 v -2.378047 h 2.58536 z m -0.14634,15.9024327 h -2.29268 V -18.646334 h 2.29268 z"
       id="path1880" />
    <path
       d="m 340.85352,-1.7508864e-7 h -2.29268 V -6.560973 q -1.06097,0.9146337 -2.10975,1.3658531 -1.04878,0.4390242 -2.2683,0.4390242 -2.42682,0 -3.87804,-1.8658529 -1.43903,-1.878048 -1.43903,-5.1707294 0,-1.756097 0.5,-3.09756 0.5122,-1.353658 1.34147,-2.268292 0.80487,-0.890243 1.89024,-1.378048 1.08536,-0.487804 2.29268,-0.487804 1.09756,0 1.93902,0.243902 0.85366,0.243902 1.73171,0.719512 l 0.14634,-0.585366 h 2.14634 z M 338.56084,-8.4878015 v -7.7073135 q -0.95122,-0.426829 -1.68292,-0.597561 -0.73171,-0.170732 -1.58537,-0.170732 -1.9878,0 -3.02439,1.353658 -1.03658,1.341463 -1.03658,3.707316 0,2.3902427 0.82926,3.6829251 0.84147,1.2804872 2.63415,1.2804872 1,0 2,-0.426829 1,-0.4390243 1.86585,-1.1219508 z"
       id="path1882" />
    <path
       d="m 356.6584,-5.0243883 h -2.29268 v -1.5121945 q -1.15854,0.9146338 -2.21951,1.4024384 -1.06098,0.4878047 -2.34147,0.4878047 -2.14634,0 -3.34146,-1.3048775 -1.19512,-1.3170726 -1.19512,-3.8536569 v -8.8414599 h 2.29268 v 7.756094 q 0,1.0365854 0.0976,1.7804875 0.0976,0.7317071 0.41464,1.2560971 0.32927,0.5365851 0.85366,0.7804875 0.52439,0.2439023 1.52439,0.2439023 0.89024,0 1.93902,-0.4634144 1.06097,-0.4634145 1.97561,-1.1829264 V -18.646334 h 2.29268 z"
       id="path1884" />
    <path
       d="m 372.57303,-11.597556 h -10.03658 q 0,1.256097 0.37804,2.1951207 0.37805,0.9268289 1.03659,1.5243896 0.63414,0.5853657 1.5,0.8780485 0.87805,0.2926828 1.92683,0.2926828 1.39024,0 2.79268,-0.5487803 1.41463,-0.5609754 2.01219,-1.0975605 h 0.12195 v 2.4999989 q -1.15853,0.4878047 -2.36585,0.8170729 -1.20732,0.3292681 -2.53658,0.3292681 -3.39025,0 -5.29268,-1.8292675 -1.90244,-1.8414626 -1.90244,-5.2195102 0,-3.341462 1.81707,-5.304876 1.82927,-1.963413 4.80488,-1.963413 2.75609,0 4.2439,1.609755 1.5,1.609755 1.5,4.573169 z m -2.23171,-1.756097 q -0.0122,-1.804877 -0.91463,-2.792682 -0.89025,-0.987804 -2.71951,-0.987804 -1.84147,0 -2.93903,1.085365 -1.08536,1.085365 -1.2317,2.695121 z"
       id="path1886" />
    <path
       d="m 395.92665,-5.0243883 h -2.29268 v -7.7560947 q 0,-0.878048 -0.0854,-1.695121 -0.0732,-0.817073 -0.32927,-1.304877 -0.28049,-0.52439 -0.80488,-0.792683 -0.52439,-0.268293 -1.51219,-0.268293 -0.96342,0 -1.92683,0.487805 -0.96342,0.47561 -1.92683,1.219512 0.0366,0.280488 0.061,0.658536 0.0244,0.365854 0.0244,0.731707 v 8.7195087 h -2.29268 v -7.7560947 q 0,-0.902438 -0.0854,-1.707316 -0.0732,-0.817073 -0.32927,-1.304877 -0.28049,-0.524391 -0.80488,-0.780488 -0.52439,-0.268293 -1.51219,-0.268293 -0.93903,0 -1.89025,0.463415 -0.93902,0.463414 -1.87804,1.182926 v 10.1707277 h -2.29269 V -18.646334 h 2.29269 v 1.512195 q 1.07317,-0.890244 2.13414,-1.390244 1.07317,-0.499999 2.28049,-0.499999 1.39024,0 2.35366,0.585365 0.9756,0.585366 1.45121,1.621951 1.39025,-1.170732 2.53659,-1.682926 1.14634,-0.52439 2.45122,-0.52439 2.2439,0 3.30487,1.365853 1.07317,1.353658 1.07317,3.792681 z"
       id="path1888" />
    <path
       d="m 411.74374,-11.597556 h -10.03658 q 0,1.256097 0.37805,2.1951207 0.37805,0.9268289 1.03658,1.5243896 0.63415,0.5853657 1.5,0.8780485 0.87805,0.2926828 1.92683,0.2926828 1.39025,0 2.79268,-0.5487803 1.41464,-0.5609754 2.0122,-1.0975605 h 0.12195 v 2.4999989 q -1.15854,0.4878047 -2.36585,0.8170729 -1.20732,0.3292681 -2.53659,0.3292681 -3.39024,0 -5.29268,-1.8292675 -1.90244,-1.8414626 -1.90244,-5.2195102 0,-3.341462 1.81708,-5.304876 1.82926,-1.963413 4.80487,-1.963413 2.7561,0 4.2439,1.609755 1.5,1.609755 1.5,4.573169 z m -2.2317,-1.756097 q -0.0122,-1.804877 -0.91464,-2.792682 -0.89024,-0.987804 -2.71951,-0.987804 -1.84146,0 -2.93902,1.085365 -1.08537,1.085365 -1.23171,2.695121 z"
       id="path1890" />
    <path
       d="m 426.60957,-5.0243883 h -2.29268 v -7.7560947 q 0,-0.939024 -0.10976,-1.756096 -0.10976,-0.829268 -0.40244,-1.292683 -0.30488,-0.512195 -0.87805,-0.756097 -0.57317,-0.256098 -1.4878,-0.256098 -0.93903,0 -1.96342,0.463415 -1.02439,0.463414 -1.96341,1.182926 v 10.1707277 h -2.29268 V -18.646334 h 2.29268 v 1.512195 q 1.07317,-0.890244 2.21951,-1.390244 1.14634,-0.499999 2.35366,-0.499999 2.20732,0 3.36585,1.329267 1.15854,1.329268 1.15854,3.829267 z"
       id="path1892" />
    <path
       d="m 438.09737,-5.1463395 q -0.64634,0.1707317 -1.41464,0.2804877 -0.75609,0.1097561 -1.35365,0.1097561 -2.08537,0 -3.17073,-1.1219508 -1.08537,-1.1219507 -1.08537,-3.5975595 v -7.243899 h -1.54878 v -1.926829 h 1.54878 v -3.914632 h 2.29268 v 3.914632 h 4.73171 v 1.926829 h -4.73171 v 6.207314 q 0,1.0731704 0.0488,1.6829262 0.0488,0.5975608 0.34147,1.1219508 0.26829,0.4878047 0.7317,0.7195119 0.47561,0.2195121 1.43903,0.2195121 0.56097,0 1.17073,-0.1585365 0.60975,-0.1707317 0.87805,-0.2804877 h 0.12195 z"
       id="path1894" />
  </g>
</svg>
